<svg width="300" height="53" viewBox="0 0 300 53" fill="none" xmlns="http://www.w3.org/2000/svg">
<path d="M23.0513 52.1704C21.8479 51.9107 20.4913 51.0406 19.7814 50.0805C18.6585 48.5585 18.236 46.8643 18.1677 43.5943C18.1304 41.8724 18.1503 41.3858 18.32 39.9582C18.6144 37.4692 18.6343 37.6146 17.8872 36.5939C16.4362 34.6114 15.0631 32.1024 14.5125 30.4211C14.2787 29.7086 14.1064 28.9269 13.9168 27.6932C13.5853 25.5383 13.3117 24.2839 12.9299 23.1878C12.5775 22.1766 12.4052 21.8217 12.3143 21.9204C12.226 22.0182 11.336 25.1669 10.9984 26.5668C10.6781 27.9027 10.4305 28.3728 9.91622 28.623C9.29374 28.9243 8.69551 28.816 8.22541 28.3182C8.09728 28.1797 7.42719 26.9694 6.74065 25.6232C4.71481 21.6632 3.78846 20.1239 1.66131 17.1856C0.964388 16.222 0.295165 15.2307 0.173095 14.9805C-0.0433421 14.5373 -0.0433417 14.5243 0.0986409 14.2464C0.305555 13.8481 1.24922 12.8872 1.99636 12.3192C2.92617 11.6093 4.41439 10.631 6.56145 9.31248C7.6064 8.6701 10.2885 6.94207 12.5204 5.4677C19.0308 1.16926 19.9978 0.651546 21.3501 0.749376C22.0133 0.796992 22.4219 0.990054 23.3015 1.66274C24.4651 2.55186 24.7015 2.59601 26.5819 2.27828C27.6502 2.09648 28.1818 2.05146 29.3046 2.05146C30.7755 2.05146 31.2491 2.12245 32.6759 2.55533L33.3823 2.77176L34.4515 2.47135C36.5553 1.87571 37.2046 1.80472 40.4234 1.7952C43.7176 1.78481 43.6908 1.79173 44.8673 0.979664C46.4707 -0.125896 47.3399 -0.258354 48.706 0.394419C50.0549 1.04027 55.1411 4.65216 58.8076 7.57406C59.8958 8.43981 60.3728 8.7584 61.7295 9.52546C63.8999 10.7496 65.3137 11.798 66.2781 12.8872C67.2789 14.0239 67.2244 14.3416 65.5742 17.0064C64.2929 19.079 63.6566 20.2088 62.3104 22.8199C61.597 24.2025 60.9209 25.4777 60.8092 25.6509C60.3624 26.3469 59.7166 26.7694 59.108 26.7694C58.7877 26.7694 58.2388 26.5296 58.057 26.3132C57.9964 26.2422 57.3228 24.9401 56.5618 23.4216L55.1784 20.6616L54.9991 21.0745C54.3602 22.5385 53.8087 24.676 53.4365 27.1079C53.0512 29.6376 52.6452 30.899 51.4383 33.3101C50.7007 34.7845 50.1025 35.7481 49.3692 36.6476C49.0506 37.0372 48.7259 37.4527 48.6446 37.5783C48.4489 37.8752 48.4593 38.3523 48.6723 39.3063C49.2636 41.9269 49.3147 44.3276 48.8342 46.8071C48.5268 48.3897 48.0567 49.3438 47.0992 50.3203C45.8214 51.6259 43.8189 52.3055 41.9489 52.0692C40.8866 51.9341 40.0546 51.6597 38.1846 50.8277C35.5337 49.6477 34.5632 49.4148 33.0412 49.594C32.0066 49.7152 30.9305 50.0805 29.1315 50.916C27.458 51.6969 26.8693 51.9237 25.9698 52.1401C25.1577 52.3367 23.8625 52.3497 23.0479 52.1739L23.0513 52.1704ZM25.5204 49.5767C25.7871 49.4555 26.2676 49.1066 26.626 48.7715C28.2865 47.2331 29.057 46.8877 31.1746 46.7491C31.6378 46.7188 32.0404 46.6582 32.0672 46.6141C32.0941 46.5699 31.7322 46.1743 31.2621 45.731C30.792 45.2921 30.4067 44.9034 30.4102 44.8722C30.4102 44.8419 30.6058 44.7034 30.8396 44.5614C31.3772 44.2437 31.9391 43.6524 32.2092 43.1139C33.1295 41.2941 32.2464 39.1297 30.3461 38.5453C29.5271 38.2942 27.9722 38.4267 27.6536 38.7747C27.2381 39.2353 27.9653 40.7227 28.7358 40.9936C28.915 41.0577 28.9185 41.0343 28.7531 40.3236C28.58 39.5799 28.6319 39.3842 29.0172 39.3124C30.5825 39.018 31.7963 40.6318 31.0734 42.0386C30.173 43.7874 27.5151 43.4221 26.3282 41.3893C26.0139 40.8517 25.6183 39.6102 25.4997 38.7886C25.3681 37.8683 25.4763 37.4597 25.9802 36.9523C26.6295 36.303 28.7393 35.3698 30.9842 34.7404C32.3408 34.3586 33.8057 34.2703 35.003 34.4971C37.086 34.8893 40.0148 36.039 40.7922 36.7697C41.1948 37.148 41.3099 37.4761 41.3099 38.2544C41.3099 39.302 40.9714 40.6482 40.5083 41.4369C39.5109 43.1407 37.2686 43.6956 36.0981 42.5286C34.8229 41.2542 35.7198 39.2111 37.5119 39.2959L38.053 39.3228L38.0495 39.8301C38.0495 40.1071 38.0149 40.4794 37.9751 40.6551C37.918 40.9192 37.9275 40.9729 38.0392 40.9729C38.2694 40.9729 38.8677 40.3608 39.0781 39.9149C39.1958 39.6578 39.2737 39.3331 39.2772 39.0864C39.2772 38.7003 39.2633 38.6734 38.9828 38.5548C38.5396 38.3687 37.5154 38.3081 36.8964 38.4302C35.8176 38.6397 35.0437 39.2284 34.5632 40.2084C34.3563 40.6283 34.3329 40.7703 34.3329 41.565C34.3329 42.3667 34.3563 42.5018 34.5692 42.9312C34.8463 43.4922 35.6887 44.3207 36.267 44.6021C36.4834 44.706 36.6592 44.8151 36.6592 44.8445C36.6592 44.8739 36.2739 45.2852 35.8038 45.7587L34.9484 46.6175L35.6549 46.6747C36.6938 46.7595 37.769 46.9491 38.2824 47.1448C38.8919 47.3716 39.3412 47.6755 40.2477 48.4607C41.245 49.3265 41.7117 49.5394 42.7168 49.5836C43.7003 49.6269 44.3903 49.4174 45.1348 48.8494C46.3148 47.9491 46.7442 46.7223 46.8594 43.9355C47.0014 40.4655 45.9564 36.8536 43.2406 31.4263C42.554 30.0567 42.0025 28.9243 42.0164 28.9104C42.0597 28.8671 43.4605 30.3614 44.2076 31.254C45.0872 32.3059 46.159 33.8279 46.7676 34.8901L47.2074 35.6537L47.5624 35.2511C48.7658 33.885 50.2479 30.9224 50.8124 28.7312C50.8799 28.4671 51.0522 27.5477 51.1942 26.688C51.337 25.8292 51.5128 24.8319 51.5838 24.4769L51.7119 23.8276L51.4617 23.3341C50.8297 22.0892 50.0107 21.6191 49.1181 21.9948C48.9562 22.0623 48.3372 22.5861 47.745 23.1575C45.8854 24.9565 44.8301 25.2916 42.6146 24.7877C41.4286 24.5176 41.0528 24.5141 40.8121 24.7704C40.4399 25.1669 40.4035 25.9911 40.6771 27.7806C40.7446 28.2169 40.7749 28.5996 40.7481 28.6264C40.7212 28.6533 40.42 28.3892 40.0789 28.0343C39.6356 27.5711 39.3646 27.1928 39.111 26.682C38.3058 25.0414 38.4253 23.625 39.5135 21.9507C39.7066 21.6563 39.8624 21.3213 39.8624 21.2035C39.8624 21.0884 39.923 20.7429 40.0009 20.4391C40.613 17.9665 42.483 16.364 44.7392 16.3804C46.2542 16.3908 47.4169 16.9215 48.6991 18.1933C49.1216 18.6132 49.6428 19.2045 49.8557 19.5093C50.4133 20.3006 51.1717 21.6771 51.492 22.4848L51.7664 23.1774L51.8643 22.7991C52.0028 22.2649 52.4495 20.9464 53.0001 19.4443C53.71 17.5172 53.7178 17.5743 52.4833 15.3762C51.5968 13.8005 51.0115 12.4543 50.3761 10.5401C49.4289 7.67968 49.2904 7.58099 46.2404 7.58099C44.6613 7.58099 43.5998 7.45632 43.3834 7.24335C43.3384 7.20266 43.4466 7.11089 43.6258 7.03643C44.1236 6.82692 44.9651 6.19146 45.4283 5.67028C46.0845 4.93353 46.6291 3.66868 46.6291 2.87046C46.6291 2.53887 46.5546 2.52502 46.2335 2.79254C45.4889 3.41155 44.3634 3.87819 43.2207 4.04355C42.6588 4.12493 42.0865 4.12492 40.613 4.05047C37.8496 3.90849 36.2635 4.0877 34.5052 4.7474L33.6697 5.06166L32.6455 4.76125C32.0802 4.59503 31.3807 4.41928 31.0863 4.3682C30.3357 4.24007 29.1211 4.25652 28.3229 4.40889C27.9506 4.47988 27.2312 4.6158 26.7238 4.70671C25.188 4.99067 24.1058 4.91276 23.1968 4.44958C23.0271 4.36214 22.6349 4.09809 22.3276 3.86433C22.0194 3.62799 21.7285 3.45916 21.6843 3.486C21.6376 3.51284 21.5389 3.65482 21.4653 3.80027C21.0047 4.68939 22.0774 6.39059 23.5448 7.10136L24.1768 7.40524L23.9266 7.50047C23.2773 7.74721 22.692 7.83812 21.6912 7.83812C19.913 7.84158 19.0473 8.00694 18.4585 8.45366C17.8525 8.91337 17.5963 9.39733 17.0344 11.1591C16.3245 13.3815 15.7124 14.7641 14.1601 17.6522C13.5922 18.7076 13.5853 18.6262 14.5419 21.2364C15.154 22.9013 15.5981 24.7037 15.9834 27.0707C16.1046 27.8152 16.3176 28.8498 16.4595 29.3736C16.8491 30.8073 17.9988 33.0599 19.236 34.8217L19.6593 35.4208L19.9632 34.7542C20.6264 33.2997 21.6878 31.7137 22.7596 30.5744C23.3829 29.9147 24.4746 28.9381 24.5326 28.9953C24.5525 29.0152 24.1907 29.8065 23.7275 30.7536C22.1484 34.0071 21.1571 36.5402 20.7684 38.3116C20.0714 41.4906 20.2506 46.0695 21.1432 47.8287C21.59 48.7109 22.4964 49.4581 23.4565 49.7325C24.0487 49.9013 24.9482 49.8338 25.5127 49.5767H25.5204ZM26.5784 29.0524C26.613 28.7953 26.639 27.9806 26.6433 27.2361C26.6433 26.0292 26.626 25.8465 26.4702 25.5487C26.0979 24.8423 25.4798 24.6968 24.4478 25.0786C22.7639 25.7011 22.7838 25.6942 21.9553 25.6942C20.1667 25.6907 18.7434 24.7877 17.7079 22.9956C17.1712 22.0658 16.7582 21.7238 16.2942 21.8251C16.1626 21.8554 16.0345 21.8424 16.0067 21.8018C15.9392 21.6892 16.6734 20.5404 17.2586 19.8365C20.332 16.1605 25.2763 16.577 26.6399 20.6278C26.7143 20.8512 26.8321 21.4026 26.8996 21.8485C26.981 22.4 27.0797 22.735 27.1939 22.8805C27.4848 23.2458 27.9722 24.1419 28.1073 24.5574C28.3237 25.2275 28.283 26.3599 28.0121 27.1451C27.7826 27.8144 27.2762 28.6775 26.7853 29.2247L26.5213 29.519L26.5784 29.0524ZM23.3587 23.9696C24.1067 23.7393 24.9923 23.3203 25.0062 23.1913C25.0495 22.664 24.7188 21.5005 24.3638 20.936C24.0963 20.5135 23.9846 20.5066 23.9811 20.9152C23.9777 21.6702 23.2106 22.6407 22.3986 22.9177C21.1233 23.3506 20.0316 22.8199 19.3347 21.4295C19.1485 21.0546 18.9927 20.6789 18.9927 20.594C18.9927 20.3369 18.868 20.3404 18.5772 20.6044C18.2629 20.8919 18.2655 21.02 18.6144 21.7377C19.5174 23.6008 21.5129 24.5375 23.3587 23.9696ZM22.0168 20.5542C22.4193 20.0841 22.1683 19.2582 21.577 19.1093C21.1173 18.995 20.5147 19.485 20.5147 19.9785C20.5147 20.7464 21.519 21.1317 22.0168 20.5533V20.5542ZM16.2033 18.9543C16.2033 18.7846 16.8526 17.6626 17.2785 17.0843C19.8489 13.6343 24.6547 11.9738 27.8268 13.4447C29.2674 14.1113 30.2552 15.5831 30.1228 16.8609C30.076 17.3206 29.4475 18.7309 29.2639 18.7916C29.2137 18.8089 29.1765 18.5007 29.1687 17.9968C29.1557 16.9181 28.9566 16.3804 28.3203 15.6904C27.3801 14.6758 25.8416 14.2533 24.0227 14.5104C21.6012 14.855 19.2914 16.0826 17.0223 18.2271C16.5721 18.653 16.1998 18.9812 16.1998 18.9508L16.2033 18.9543ZM36.3284 18.8288C36.1691 18.5344 35.9908 17.6046 35.9908 17.0904C35.9908 15.7242 36.5821 14.3347 37.5898 13.327C38.6521 12.2681 39.8728 11.7608 41.5835 11.663C44.8543 11.4803 47.9347 13.0049 49.7241 15.6939C50.3085 16.5735 50.2748 16.6272 49.551 15.9883C47.8706 14.507 46.3625 13.6854 44.5262 13.2421C43.47 12.9884 41.6415 12.9616 40.8061 13.185C39.6114 13.5053 38.6989 14.1416 38.0738 15.0818C37.5933 15.8021 37.3838 16.2826 36.8834 17.7873C36.6635 18.4504 36.4678 18.9907 36.4505 18.9907C36.4332 18.9907 36.3795 18.9171 36.3319 18.8288H36.3284ZM32.0975 16.2584C32.0975 15.964 31.2759 11.0068 31.1132 10.3341C30.8838 9.36962 30.3253 7.65891 30.0994 7.21911C30.0284 7.08405 29.9868 6.95505 30.0111 6.93168C30.0821 6.86069 30.65 7.41563 31.05 7.94633C32.5373 9.92457 33.0109 12.6976 32.3486 15.532C32.2499 15.9476 32.1555 16.2895 32.1348 16.2895C32.1148 16.2895 32.101 16.2792 32.101 16.2618L32.0975 16.2584ZM34.5225 15.1632C34.3061 14.5745 34.2177 14.1624 34.1268 13.3001C33.8905 11.0301 34.7156 8.19654 35.983 6.9083C36.2644 6.62434 36.531 6.39405 36.5786 6.39405C36.6297 6.39405 36.6055 6.52911 36.5276 6.71178C36.1319 7.62514 35.6211 9.2311 35.4393 10.141C35.2229 11.2197 34.9415 13.327 34.8402 14.6593C34.8065 15.0887 34.7528 15.461 34.719 15.4818C34.6844 15.5017 34.5969 15.3597 34.5225 15.1632ZM9.43573 22.174C9.64736 20.9806 9.88521 19.7919 10.1491 18.6089C10.4002 17.4929 10.5889 16.5666 10.5716 16.5467C10.5551 16.5294 10.298 16.7692 10.0002 17.0834C9.70324 17.3986 9.43573 17.6185 9.41149 17.5743C9.33357 17.4496 9.51018 16.3943 9.7777 15.3961C10.1024 14.1823 10.6833 12.4846 11.6235 10.0259C12.6485 7.3481 12.6148 7.50307 12.0633 7.83812C10.7378 8.64326 8.36393 11.2639 6.52075 13.9555L5.77015 15.0515L5.70522 14.6792C5.63077 14.2533 5.74245 13.3434 5.93897 12.7685C6.01343 12.5521 6.05065 12.353 6.02382 12.3262C5.96321 12.2655 4.7858 12.6508 3.3348 13.2049C2.56083 13.4992 2.25955 13.6551 2.25608 13.7564C2.25262 14.0265 2.7435 14.8152 3.74084 16.1545C5.51995 18.5318 6.40215 19.962 7.69384 22.5385C8.17087 23.4926 8.67214 24.5211 8.80633 24.8215L9.05047 25.373L9.11453 24.541C9.1483 24.0847 9.29634 23.019 9.43919 22.174H9.43573ZM59.6188 23.2389C61.2827 19.7794 61.952 18.5414 63.6393 15.8194C64.1873 14.9364 64.6609 14.1079 64.6955 13.9754C64.7622 13.7018 64.6176 13.4992 64.1103 13.178C63.8332 13.0023 62.9026 12.5694 62.2333 12.3088C62.0602 12.2413 62.0567 12.2612 62.0636 13.0153C62.0671 13.5936 62.0204 13.946 61.8775 14.4022C61.7736 14.7399 61.6481 15.0143 61.6039 15.0143C61.5563 15.0143 61.4143 14.8385 61.2897 14.6221C60.0144 12.4612 58.0466 9.7696 56.7947 8.47357C56.2164 7.87534 55.2329 7.15504 55.1342 7.25633C55.0701 7.3204 55.5333 8.49435 56.3688 10.4016C56.7742 11.3234 57.1601 12.2537 57.5263 13.1919C58.1894 14.9701 58.6993 16.9588 58.4968 16.9588C58.4535 16.9588 58.4015 16.9328 58.3851 16.8947C58.3314 16.77 57.4691 16.0999 57.4007 16.1268C57.3609 16.1441 57.5332 16.8609 57.7799 17.7198C58.1487 18.9985 59.0647 22.5221 59.2811 23.4891C59.3123 23.6181 59.3487 23.7229 59.366 23.7229C59.3833 23.7229 59.501 23.503 59.63 23.2354L59.6188 23.2389ZM45.2829 23.2527C46.1183 23.006 46.8585 22.4208 47.5182 21.484C48.1329 20.6114 48.171 20.3741 47.7546 19.898C47.5624 19.6781 47.4983 19.7153 47.3927 20.1075C47.2572 20.6177 46.9986 21.0868 46.6395 21.4736C46.3788 21.76 46.0542 21.9807 45.692 22.1176C45.3298 22.2546 44.9403 22.304 44.5554 22.2618C44.1705 22.2196 43.801 22.087 43.4771 21.8748C43.1532 21.6626 42.8841 21.3768 42.6917 21.0408C42.496 20.7057 42.4553 20.6754 42.3679 20.794C42.3134 20.8685 42.1783 21.2607 42.0701 21.6598C41.8467 22.4952 41.8606 22.5454 42.425 22.8943C43.1869 23.361 44.3998 23.5125 45.2829 23.2493V23.2527ZM45.6447 19.9889C45.8846 19.8677 46.0672 19.4244 46.0101 19.1127C45.8846 18.4401 45.1409 18.1734 44.6197 18.6123C43.7912 19.3093 44.6708 20.4858 45.6447 19.9889Z" fill="#C7AC0F"/>
<path d="M112.029 28.9548L111.821 28.3291C111.555 28.4381 111.304 28.5092 111.081 28.5376C110.854 28.5661 110.673 28.5803 110.545 28.5803C110.185 28.5898 109.858 28.5234 109.574 28.3859C109.285 28.2437 109.024 28.0589 108.787 27.8266C108.55 27.5991 108.337 27.3336 108.147 27.035C107.957 26.7411 107.782 26.4377 107.616 26.1344C106.687 24.4327 105.824 22.7025 105.018 20.9486C104.213 19.1948 103.402 17.4409 102.587 15.6918C102.468 15.4311 102.326 15.123 102.165 14.7675C102.004 14.412 101.819 14.0328 101.62 13.6346C101.421 13.2364 101.212 12.8382 100.985 12.4401C100.757 12.0419 100.515 11.6722 100.255 11.3214C99.9939 10.9754 99.7237 10.6767 99.4346 10.4208C99.1502 10.1648 98.8515 9.98466 98.5482 9.8709C98.1926 9.74292 97.8277 9.65285 97.4484 9.60071C97.0692 9.54857 96.6853 9.52487 96.2966 9.52487C95.4813 9.52487 94.6612 9.61967 93.8317 9.80928C93.0022 9.99889 92.1869 10.2312 91.381 10.4966L91.5754 11.0654C91.8977 10.9469 92.239 10.8426 92.5945 10.762C92.95 10.6767 93.315 10.6341 93.6848 10.6341C94.2109 10.6341 94.6565 10.7668 95.012 11.0275C95.3675 11.2835 95.6804 11.6058 95.9411 11.9897C96.2065 12.3737 96.434 12.7908 96.6284 13.2412C96.8227 13.6915 97.0171 14.0991 97.2114 14.4689C97.3536 14.7817 97.4958 15.0946 97.6523 15.4074C97.804 15.7155 97.9604 16.0189 98.1168 16.3175C97.5432 16.6304 97.0313 17.0191 96.581 17.4741C96.1307 17.9339 95.7325 18.4269 95.3865 18.9483C95.0404 19.4697 94.7418 20.0101 94.5001 20.5647C94.2536 21.1193 94.0545 21.6502 93.9075 22.1479C93.6468 23.0201 93.3529 23.8449 93.0211 24.627C92.6846 25.4091 92.2817 26.1154 91.8124 26.7364C91.3384 27.3621 90.7743 27.8882 90.1249 28.3148C89.4708 28.7415 88.6934 29.0259 87.7975 29.1776L87.935 29.7748C88.7123 29.7748 89.4281 29.7179 90.0728 29.6042C90.7222 29.4951 91.3099 29.334 91.8408 29.1254C92.367 28.9168 92.841 28.6656 93.2676 28.3717C93.6942 28.0731 94.0782 27.7365 94.4195 27.3573C94.5996 27.2246 94.903 27.0208 95.3296 26.7364C95.7609 26.4567 96.2918 26.1439 96.9223 25.8073C97.5527 25.4708 98.2685 25.1295 99.0791 24.7787C99.8896 24.4327 100.762 24.1245 101.7 23.8591L102.046 24.5938C102.231 24.992 102.421 25.4186 102.615 25.8689C102.81 26.324 103.028 26.7648 103.274 27.1914C103.521 27.618 103.796 28.0115 104.099 28.3859C104.407 28.7557 104.763 29.0543 105.17 29.2866C105.365 29.3909 105.597 29.4809 105.867 29.5662C106.094 29.6373 106.374 29.699 106.696 29.7511C107.024 29.8033 107.408 29.827 107.848 29.827C108.408 29.827 109.029 29.7701 109.725 29.6468C110.418 29.5283 111.19 29.2961 112.029 28.9548ZM98.8942 17.9149L101.255 22.8968C100.188 23.2144 99.1881 23.5936 98.2543 24.0392C97.3205 24.4801 96.5052 24.9067 95.8084 25.3143C96.0122 24.9351 96.197 24.5464 96.3582 24.1435C96.5194 23.7406 96.6711 23.3235 96.8085 22.8968C96.9507 22.5082 97.0882 22.1005 97.2257 21.6786C97.3679 21.252 97.5195 20.8207 97.6854 20.394C97.8514 19.9627 98.0362 19.5361 98.2353 19.1237C98.4344 18.7065 98.6524 18.3036 98.8942 17.9149ZM114.442 9.7761V10.288C114.693 10.288 114.921 10.307 115.124 10.3449C115.328 10.3828 115.523 10.4492 115.717 10.544C115.907 10.6435 116.091 10.7715 116.276 10.928C116.461 11.0844 116.665 11.2882 116.888 11.5394V27.2436C116.888 27.5043 116.855 27.7508 116.793 27.983C116.727 28.2106 116.603 28.4144 116.423 28.5945C116.243 28.7699 115.992 28.9074 115.674 29.0164C115.352 29.1207 114.944 29.1776 114.442 29.1776V29.6895H120.58V29.1776C120.054 29.1776 119.632 29.1064 119.31 28.9737C118.992 28.841 118.746 28.6751 118.575 28.4807C118.405 28.2864 118.291 28.0778 118.229 27.855C118.168 27.6323 118.139 27.4284 118.139 27.2436V13.0515L131.928 29.6895H133.194V12.2315C133.194 11.9755 133.222 11.729 133.289 11.4968C133.355 11.2645 133.478 11.0607 133.658 10.8806C133.839 10.7004 134.085 10.5535 134.398 10.4492C134.716 10.3402 135.128 10.288 135.635 10.288V9.7761H129.482V10.288C129.985 10.288 130.393 10.3497 130.705 10.4682C131.023 10.5914 131.269 10.7383 131.45 10.9232C131.63 11.1033 131.753 11.2977 131.824 11.511C131.895 11.7243 131.928 11.9234 131.928 12.1083V22.5508L121.415 9.7761H114.442ZM140.522 9.7761V10.288C140.773 10.288 140.996 10.307 141.2 10.3449C141.404 10.3828 141.603 10.4492 141.793 10.544C141.982 10.6435 142.167 10.7715 142.357 10.928C142.542 11.0844 142.745 11.2882 142.963 11.5394V27.2436C142.963 27.5043 142.935 27.7508 142.869 27.983C142.802 28.2106 142.679 28.4144 142.499 28.5945C142.319 28.7699 142.068 28.9074 141.75 29.0164C141.432 29.1207 141.02 29.1776 140.522 29.1776V29.6895H146.661V29.1776C146.13 29.1776 145.708 29.1064 145.39 28.9737C145.068 28.841 144.826 28.6751 144.651 28.4807C144.48 28.2864 144.366 28.0778 144.305 27.855C144.243 27.6323 144.215 27.4284 144.215 27.2436V13.0515L158.004 29.6895H159.27V12.2315C159.27 11.9755 159.303 11.729 159.364 11.4968C159.431 11.2645 159.554 11.0607 159.734 10.8806C159.914 10.7004 160.161 10.5535 160.478 10.4492C160.791 10.3402 161.204 10.288 161.715 10.288V9.7761H155.563V10.288C156.06 10.288 156.468 10.3497 156.781 10.4682C157.099 10.5914 157.345 10.7383 157.525 10.9232C157.705 11.1033 157.833 11.2977 157.9 11.511C157.971 11.7243 158.004 11.9234 158.004 12.1083V22.5508L147.495 9.7761H140.522ZM189.498 28.9548L189.289 28.3291C189.023 28.4381 188.772 28.5092 188.549 28.5376C188.322 28.5661 188.142 28.5803 188.014 28.5803C187.654 28.5898 187.327 28.5234 187.042 28.3859C186.753 28.2437 186.492 28.0589 186.255 27.8266C186.018 27.5991 185.805 27.3336 185.615 27.035C185.426 26.7411 185.25 26.4377 185.084 26.1344C184.155 24.4327 183.293 22.7025 182.487 20.9486C181.681 19.1948 180.87 17.4409 180.055 15.6918C179.937 15.4311 179.794 15.123 179.633 14.7675C179.472 14.412 179.287 14.0328 179.088 13.6346C178.889 13.2364 178.68 12.8382 178.453 12.4401C178.225 12.0419 177.984 11.6722 177.723 11.3214C177.462 10.9754 177.192 10.6767 176.903 10.4208C176.614 10.1648 176.32 9.98466 176.017 9.8709C175.661 9.74292 175.296 9.65285 174.917 9.60071C174.538 9.54857 174.154 9.52487 173.765 9.52487C172.95 9.52487 172.13 9.61967 171.3 9.80928C170.471 9.99889 169.655 10.2312 168.849 10.4966L169.044 11.0654C169.366 10.9469 169.707 10.8426 170.063 10.762C170.418 10.6767 170.783 10.6341 171.153 10.6341C171.679 10.6341 172.125 10.7668 172.48 11.0275C172.836 11.2835 173.149 11.6058 173.409 11.9897C173.675 12.3737 173.902 12.7908 174.097 13.2412C174.291 13.6915 174.485 14.0991 174.68 14.4689C174.822 14.7817 174.964 15.0946 175.121 15.4074C175.272 15.7155 175.429 16.0189 175.585 16.3175C175.012 16.6304 174.5 17.0191 174.049 17.4741C173.599 17.9339 173.201 18.4269 172.855 18.9483C172.509 19.4697 172.21 20.0101 171.968 20.5647C171.722 21.1193 171.523 21.6502 171.376 22.1479C171.115 23.0201 170.821 23.8449 170.489 24.627C170.153 25.4091 169.75 26.1154 169.281 26.7364C168.807 27.3621 168.243 27.8882 167.593 28.3148C166.939 28.7415 166.162 29.0259 165.266 29.1776L165.403 29.7748C166.181 29.7748 166.896 29.7179 167.541 29.6042C168.191 29.4951 168.778 29.334 169.304 29.1254C169.835 28.9168 170.309 28.6656 170.736 28.3717C171.163 28.0731 171.547 27.7365 171.888 27.3573C172.068 27.2246 172.367 27.0208 172.798 26.7364C173.229 26.4567 173.76 26.1439 174.391 25.8073C175.021 25.4708 175.737 25.1295 176.547 24.7787C177.358 24.4327 178.23 24.1245 179.169 23.8591L179.515 24.5938C179.7 24.992 179.889 25.4186 180.084 25.8689C180.278 26.324 180.496 26.7648 180.742 27.1914C180.989 27.618 181.264 28.0115 181.567 28.3859C181.875 28.7557 182.231 29.0543 182.639 29.2866C182.833 29.3909 183.065 29.4809 183.331 29.5662C183.563 29.6373 183.843 29.699 184.165 29.7511C184.492 29.8033 184.876 29.827 185.317 29.827C185.876 29.827 186.497 29.7701 187.194 29.6468C187.886 29.5283 188.658 29.2961 189.498 28.9548ZM176.363 17.9149L178.723 22.8968C177.657 23.2144 176.656 23.5936 175.723 24.0392C174.789 24.4801 173.973 24.9067 173.277 25.3143C173.481 24.9351 173.665 24.5464 173.827 24.1435C173.988 23.7406 174.139 23.3235 174.277 22.8968C174.419 22.5082 174.557 22.1005 174.694 21.6786C174.836 21.252 174.988 20.8207 175.154 20.394C175.32 19.9627 175.505 19.5361 175.704 19.1237C175.903 18.7065 176.121 18.3036 176.363 17.9149ZM197.66 30.064C198.551 30.064 199.466 30.0355 200.405 29.9834C201.343 29.9265 202.263 29.8127 203.154 29.6468C204.045 29.4809 204.889 29.2487 205.68 28.9453C206.472 28.6467 207.164 28.2437 207.757 27.7365C208.349 27.2341 208.818 26.6179 209.169 25.8926C209.515 25.1626 209.686 24.2952 209.686 23.2855C209.686 22.5176 209.558 21.854 209.297 21.2947C209.041 20.7353 208.695 20.2566 208.264 19.8584C207.832 19.4602 207.344 19.1332 206.794 18.8867C206.24 18.6354 205.68 18.4316 205.107 18.2799C204.533 18.1283 203.964 18.0145 203.41 17.9386C202.855 17.8675 202.362 17.8107 201.926 17.7727C201.694 17.7538 201.405 17.7301 201.059 17.6922C200.708 17.6542 200.343 17.5926 199.959 17.5026C199.575 17.4172 199.191 17.294 198.807 17.1376C198.423 16.9764 198.077 16.7726 197.774 16.5261C197.466 16.2748 197.219 15.9667 197.03 15.6065C196.84 15.2462 196.745 14.8101 196.745 14.3029C196.745 13.7199 196.873 13.1795 197.134 12.6866C197.395 12.1888 197.731 11.7622 198.153 11.4067C198.575 11.0512 199.058 10.7715 199.599 10.5677C200.139 10.3639 200.698 10.2596 201.272 10.2596C202.125 10.2596 202.851 10.3117 203.448 10.4065C204.045 10.5061 204.548 10.6435 204.96 10.8237C205.372 11.0038 205.709 11.2171 205.974 11.4636C206.235 11.7101 206.458 11.9755 206.638 12.2694C206.818 12.5586 206.974 12.8714 207.107 13.2032C207.235 13.5398 207.373 13.8763 207.52 14.2176L208.145 14.1892C208.036 13.7863 207.946 13.4023 207.885 13.0468C207.818 12.6913 207.785 12.3121 207.785 11.9139C207.785 11.6011 207.804 11.274 207.847 10.9327C207.889 10.5961 207.96 10.2122 208.065 9.7761C207.766 9.7761 207.439 9.75714 207.083 9.7287C206.728 9.69551 206.339 9.65759 205.917 9.61493C205.496 9.57227 205.036 9.53435 204.543 9.49643C204.045 9.45851 203.519 9.44429 202.955 9.44429C202.305 9.44429 201.59 9.47747 200.808 9.54383C200.025 9.61493 199.239 9.74292 198.447 9.92304C197.655 10.1032 196.883 10.3449 196.134 10.6578C195.385 10.9659 194.721 11.3593 194.143 11.8381C193.565 12.3121 193.095 12.8856 192.745 13.554C192.394 14.2176 192.218 14.9997 192.218 15.9004C192.218 16.6588 192.342 17.3129 192.593 17.8581C192.844 18.4032 193.176 18.8677 193.593 19.2469C194.01 19.6261 194.484 19.939 195.025 20.1855C195.56 20.4272 196.12 20.6263 196.703 20.7733C197.286 20.9202 197.869 21.034 198.447 21.1051C199.025 21.1809 199.561 21.2473 200.049 21.2994C200.708 21.3753 201.348 21.4748 201.974 21.5933C202.599 21.7118 203.154 21.8919 203.642 22.1337C204.126 22.3754 204.514 22.6978 204.808 23.1007C205.097 23.5036 205.244 24.025 205.244 24.6602C205.244 25.248 205.116 25.812 204.86 26.3619C204.609 26.9165 204.254 27.4047 203.799 27.8361C203.348 28.2674 202.803 28.6087 202.173 28.8694C201.547 29.1301 200.855 29.2581 200.106 29.2581C199.476 29.2581 198.812 29.1586 198.12 28.9595C197.428 28.7604 196.759 28.4855 196.12 28.1252C195.48 27.7697 194.901 27.3479 194.385 26.8644C193.868 26.3761 193.479 25.8405 193.219 25.2574L192.593 25.2859C192.692 25.6841 192.782 26.0633 192.858 26.4188C192.929 26.7743 192.967 27.163 192.967 27.5801C192.967 27.874 192.944 28.1963 192.896 28.5424C192.854 28.8931 192.778 29.2724 192.678 29.6895C192.906 29.6895 193.138 29.7084 193.365 29.7464C193.588 29.7843 193.877 29.827 194.233 29.8791C194.584 29.9265 195.029 29.9739 195.565 30.0071C196.101 30.045 196.802 30.064 197.66 30.064ZM228.864 29.6895V29.1776C228.334 29.1776 227.912 29.1064 227.594 28.9737C227.272 28.841 227.025 28.6751 226.85 28.4807C226.675 28.2864 226.556 28.0778 226.504 27.855C226.447 27.6323 226.419 27.4284 226.419 27.2436V10.8569H228.153C228.329 10.8569 228.566 10.8663 228.864 10.8853C229.158 10.9043 229.476 10.9422 229.813 11.0038C230.154 11.0654 230.495 11.1555 230.851 11.274C231.201 11.3972 231.524 11.5537 231.813 11.7527C232.107 11.9518 232.353 12.2031 232.552 12.4969C232.751 12.7956 232.865 13.1511 232.903 13.5682L233.42 13.4829C233.41 13.426 233.401 13.3691 233.391 13.3028C233.382 13.2459 233.377 13.1795 233.377 13.0989V12.8288C233.377 12.6439 233.382 12.4306 233.396 12.1841C233.41 11.9376 233.443 11.6816 233.486 11.4067C233.534 11.1318 233.595 10.8569 233.666 10.5819C233.742 10.3023 233.846 10.0368 233.974 9.7761H214.616C214.597 10.2643 214.549 10.7526 214.478 11.2313C214.402 11.6485 214.298 12.094 214.165 12.5586C214.028 13.0278 213.838 13.4545 213.587 13.8432L214.156 13.9285C214.563 13.2886 215.018 12.7719 215.516 12.3737C216.019 11.9755 216.535 11.6627 217.071 11.4352C217.611 11.2076 218.147 11.0559 218.692 10.9754C219.233 10.8995 219.749 10.8569 220.237 10.8569H222.001V27.2436C222.001 27.5043 221.972 27.7508 221.906 27.983C221.84 28.2106 221.716 28.4144 221.536 28.5945C221.356 28.7699 221.11 28.9074 220.797 29.0164C220.479 29.1207 220.067 29.1776 219.56 29.1776V29.6895H228.864ZM252.314 29.6895V29.1776C251.816 29.1776 251.409 29.1159 251.086 28.9974C250.769 28.8742 250.518 28.7225 250.337 28.5424C250.157 28.3622 250.034 28.1679 249.968 27.9546C249.906 27.7413 249.873 27.5422 249.873 27.3573V21.4416C250.65 20.6642 251.423 19.8015 252.196 18.8582C252.973 17.9149 253.727 16.9337 254.461 15.9193C255.196 14.9049 255.912 13.8763 256.599 12.8288C257.291 11.7859 257.941 10.7668 258.552 9.7761H252.399V10.288C253.11 10.288 253.613 10.3923 253.907 10.5961C254.196 10.8 254.343 11.0559 254.343 11.3735C254.343 11.6153 254.267 11.8997 254.106 12.2315C253.414 13.8242 252.693 15.2605 251.94 16.5403C251.191 17.8154 250.39 18.9862 249.536 20.0528L244.607 12.2315C244.498 12.0277 244.403 11.8286 244.332 11.6342C244.256 11.4399 244.218 11.2598 244.218 11.0939C244.218 10.8521 244.332 10.6578 244.554 10.5108C244.777 10.3639 245.19 10.288 245.801 10.288V9.7761H236.221V10.288C236.747 10.288 237.212 10.3544 237.61 10.4919C238.008 10.6246 238.35 10.7905 238.639 10.9848C238.923 11.1792 239.16 11.3877 239.354 11.6153C239.544 11.8428 239.691 12.0466 239.805 12.2315H239.833L245.469 21.5506V27.3289C245.469 27.5801 245.436 27.8124 245.365 28.0352C245.294 28.258 245.171 28.457 244.986 28.6277C244.796 28.7983 244.55 28.9311 244.232 29.0306C243.919 29.1254 243.516 29.1776 243.023 29.1776V29.6895H252.314ZM261.842 4.12109V4.63777C262.339 4.63777 262.747 4.69939 263.06 4.8179C263.378 4.9364 263.624 5.08808 263.804 5.26821C263.984 5.44834 264.112 5.64742 264.179 5.86073C264.25 6.07404 264.283 6.27312 264.283 6.45799V27.3289C264.283 27.5801 264.25 27.8124 264.179 28.0352C264.112 28.258 263.984 28.457 263.799 28.6277C263.615 28.7983 263.363 28.9311 263.046 29.0306C262.733 29.1254 262.33 29.1776 261.842 29.1776V29.6895H268.061C269.35 29.6895 270.507 29.6847 271.535 29.6705C272.559 29.6563 273.431 29.699 274.142 29.808C274.858 29.9123 275.403 30.1161 275.787 30.41C276.176 30.7086 276.366 31.1637 276.366 31.7704C276.366 31.9126 276.361 32.0643 276.347 32.2302C276.332 32.3961 276.299 32.562 276.257 32.7327L276.906 32.5905C277.01 32.0927 277.143 31.595 277.309 31.1068C277.456 30.6897 277.655 30.2536 277.892 29.7985C278.134 29.3482 278.432 28.95 278.783 28.604H268.687V4.12109H261.842ZM299.374 14.2176L300 14.1892C299.886 13.7863 299.801 13.4023 299.735 13.0468C299.668 12.6913 299.64 12.3026 299.64 11.8855C299.64 11.5916 299.659 11.274 299.701 10.9327C299.744 10.5961 299.815 10.2122 299.915 9.7761C299.417 9.7761 298.796 9.76662 298.061 9.74766C297.327 9.7287 296.54 9.71922 295.705 9.71922C294.847 9.71922 293.989 9.74292 293.141 9.79032C292.288 9.83298 291.534 9.93726 290.875 10.0937C289.624 10.3828 288.448 10.8189 287.349 11.4067C286.244 11.9945 285.282 12.734 284.452 13.6298C283.623 14.521 282.964 15.5686 282.466 16.7678C281.973 17.9671 281.708 19.318 281.684 20.8159C281.698 22.2711 282.016 23.5842 282.632 24.7645C283.248 25.9448 284.078 26.9544 285.121 27.7887C286.159 28.6182 287.367 29.2629 288.742 29.7179C290.117 30.173 291.577 30.3958 293.127 30.3958C293.928 30.3958 294.682 30.3341 295.374 30.2014C296.07 30.0734 296.696 29.8981 297.255 29.6847C297.815 29.4667 298.298 29.2202 298.706 28.9453C299.114 28.6751 299.426 28.3907 299.64 28.0921L299.858 26.1344C299.815 26.1913 299.749 26.305 299.659 26.4757C299.569 26.6463 299.441 26.8407 299.261 27.0634C299.085 27.2862 298.867 27.5185 298.597 27.765C298.327 28.0115 297.995 28.2343 297.601 28.4381C297.208 28.6419 296.743 28.8126 296.208 28.9453C295.672 29.0827 295.051 29.1491 294.345 29.1491C293.568 29.1491 292.833 29.0353 292.141 28.8126C291.444 28.5945 290.804 28.2817 290.221 27.8787C289.638 27.4758 289.112 27.0018 288.638 26.452C288.169 25.9068 287.77 25.3096 287.443 24.6554C287.121 24.0013 286.87 23.314 286.694 22.5935C286.519 21.873 286.429 21.1335 286.429 20.3846V19.7873H292.179C293.127 19.7873 293.89 19.83 294.478 19.92C295.066 20.0101 295.535 20.1618 295.89 20.3846C296.241 20.6074 296.502 20.9107 296.682 21.2994C296.857 21.6928 297.004 22.1811 297.123 22.7736L297.583 22.6883C297.592 22.2854 297.625 21.8635 297.682 21.4274C297.725 21.0577 297.801 20.6548 297.9 20.2234C298.004 19.7968 298.151 19.3844 298.346 18.9957H286.514C286.6 18.3131 286.737 17.6258 286.931 16.9432C287.126 16.2559 287.372 15.6017 287.676 14.976C287.974 14.3503 288.325 13.7673 288.723 13.2269C289.121 12.6866 289.562 12.2173 290.05 11.8238C290.534 11.4304 291.06 11.1223 291.624 10.8948C292.188 10.6672 292.79 10.5535 293.43 10.5535C294.013 10.5535 294.601 10.6341 295.193 10.7952C295.786 10.9564 296.35 11.1981 296.881 11.511C297.412 11.8238 297.895 12.2125 298.327 12.6629C298.758 13.1179 299.104 13.6346 299.374 14.2176Z" fill="#C7AC0F"/>
<path d="M171.082 43.4928L171.177 43.6066C171.215 43.5734 171.276 43.526 171.357 43.4596C171.438 43.398 171.537 43.3317 171.66 43.27C171.779 43.2084 171.912 43.1563 172.068 43.1089C172.224 43.0615 172.39 43.0378 172.57 43.0378C172.779 43.0378 172.964 43.071 173.125 43.1373C173.286 43.2084 173.424 43.3032 173.537 43.4265C173.646 43.545 173.732 43.6872 173.789 43.8436C173.85 44.0048 173.879 44.1754 173.879 44.3555C173.879 44.4646 173.869 44.5831 173.846 44.7111C173.822 44.839 173.789 44.9718 173.737 45.0997C173.684 45.2277 173.618 45.3557 173.528 45.479C173.443 45.5975 173.329 45.7065 173.201 45.8013C173.068 45.8913 172.912 45.9672 172.732 46.0241C172.547 46.081 172.338 46.1094 172.096 46.1094C171.755 46.1094 171.442 46.0383 171.153 45.8913C170.864 45.7444 170.613 45.5453 170.404 45.2893C170.191 45.0286 170.025 44.7253 169.906 44.3698C169.788 44.019 169.726 43.635 169.726 43.2179C169.726 43.0141 169.745 42.7913 169.783 42.5495C169.816 42.3078 169.878 42.066 169.959 41.8243C170.039 41.5825 170.148 41.3503 170.281 41.1228C170.409 40.9 170.57 40.7009 170.76 40.5255C170.949 40.3501 171.172 40.2079 171.423 40.1036C171.675 39.9993 171.964 39.9472 172.286 39.9472C172.485 39.9472 172.684 39.9709 172.883 40.023C173.087 40.0704 173.277 40.1463 173.457 40.2458C173.637 40.3454 173.798 40.4734 173.945 40.6203C174.097 40.772 174.215 40.9426 174.31 41.1417L174.519 41.1322C174.476 40.9995 174.448 40.8715 174.424 40.753C174.4 40.6345 174.391 40.5018 174.391 40.3643C174.391 40.2648 174.4 40.1605 174.414 40.0467C174.429 39.933 174.452 39.805 174.485 39.6628C174.315 39.6628 174.102 39.658 173.846 39.6533C173.594 39.6438 173.324 39.6438 173.044 39.6438C172.898 39.6438 172.751 39.6438 172.599 39.6486C172.452 39.6486 172.31 39.658 172.168 39.6675C172.025 39.677 171.893 39.6865 171.76 39.7007C171.627 39.7197 171.509 39.7386 171.395 39.7671C171.125 39.8287 170.859 39.914 170.594 40.0183C170.328 40.1273 170.077 40.2553 169.84 40.407C169.598 40.5634 169.376 40.7388 169.172 40.9379C168.968 41.137 168.788 41.355 168.641 41.6015C168.489 41.8433 168.371 42.1134 168.285 42.4026C168.195 42.6917 168.148 43.0046 168.143 43.3411C168.143 43.673 168.186 43.9858 168.266 44.275C168.352 44.5641 168.47 44.8248 168.617 45.0618C168.769 45.2988 168.954 45.5074 169.162 45.6923C169.376 45.8724 169.608 46.0288 169.869 46.1521C170.129 46.28 170.404 46.3748 170.703 46.4365C170.997 46.5028 171.31 46.536 171.632 46.536C171.931 46.536 172.224 46.5076 172.528 46.4554C172.826 46.4033 173.116 46.3274 173.39 46.2326C173.665 46.1331 173.926 46.0146 174.163 45.8771C174.405 45.7349 174.613 45.5738 174.794 45.3984C174.974 45.223 175.116 45.0286 175.215 44.8201C175.32 44.6068 175.367 44.384 175.367 44.147C175.367 43.8578 175.315 43.6113 175.206 43.4075C175.097 43.2037 174.959 43.0425 174.784 42.9145C174.609 42.7865 174.41 42.6965 174.187 42.6396C173.964 42.5827 173.741 42.5543 173.509 42.5543C173.187 42.5543 172.898 42.5875 172.637 42.6491C172.376 42.7154 172.144 42.796 171.94 42.8908C171.736 42.9856 171.566 43.0899 171.423 43.1989C171.281 43.308 171.167 43.4075 171.082 43.4928ZM181.596 46.2611L181.539 46.0525C181.468 46.081 181.406 46.0999 181.344 46.1047C181.288 46.1141 181.245 46.1189 181.216 46.1189C181.112 46.1189 180.989 46.0667 180.842 45.9672C180.695 45.8629 180.543 45.7302 180.387 45.5643C180.231 45.3984 180.074 45.2088 179.918 44.9955C179.766 44.7869 179.629 44.5688 179.51 44.3555C179.723 44.3034 179.932 44.237 180.136 44.1517C180.335 44.0711 180.515 43.9716 180.671 43.8483C180.833 43.7251 180.956 43.5829 181.051 43.4217C181.15 43.2558 181.198 43.0662 181.198 42.8482C181.198 42.578 181.117 42.3457 180.965 42.1514C180.809 41.9618 180.61 41.8006 180.359 41.6774C180.103 41.5541 179.818 41.464 179.496 41.4072C179.178 41.3503 178.851 41.3218 178.515 41.3218H175.907V41.502C176.035 41.502 176.14 41.5162 176.22 41.5494C176.306 41.5778 176.367 41.6157 176.415 41.6584C176.462 41.7011 176.491 41.7532 176.509 41.8053C176.528 41.8622 176.533 41.9096 176.533 41.957V45.6449C176.533 45.7112 176.528 45.7728 176.509 45.8297C176.491 45.8866 176.462 45.9388 176.415 45.9814C176.367 46.0288 176.306 46.062 176.22 46.0904C176.14 46.1141 176.035 46.1284 175.907 46.1284V46.299H178.515V46.1284C178.382 46.1284 178.273 46.1094 178.188 46.0762C178.107 46.043 178.045 46.0004 177.998 45.953C177.955 45.9056 177.927 45.8534 177.908 45.8013C177.894 45.7444 177.889 45.6923 177.889 45.6449V42.1087C177.889 42.0518 177.894 41.9949 177.913 41.9428C177.932 41.8859 177.965 41.8385 178.012 41.8006C178.06 41.7579 178.126 41.7248 178.206 41.7011C178.292 41.6774 178.391 41.6631 178.515 41.6631C178.638 41.6631 178.775 41.6821 178.927 41.72C179.074 41.7532 179.216 41.8148 179.344 41.9049C179.472 41.9949 179.576 42.1182 179.666 42.2699C179.752 42.4216 179.794 42.6159 179.794 42.8482C179.794 43.0188 179.771 43.1705 179.723 43.3032C179.676 43.4359 179.619 43.5545 179.543 43.6587C179.467 43.763 179.382 43.8578 179.282 43.9289C179.188 44.0048 179.088 44.0711 178.989 44.128C178.752 44.256 178.481 44.3413 178.183 44.3935C178.221 44.474 178.282 44.5831 178.363 44.7205C178.439 44.858 178.534 45.0002 178.643 45.1566C178.752 45.3083 178.875 45.4647 179.012 45.6212C179.15 45.7823 179.297 45.9245 179.458 46.0478C179.614 46.1758 179.78 46.28 179.956 46.3606C180.126 46.4412 180.306 46.4791 180.486 46.4791C180.638 46.4791 180.809 46.4649 180.989 46.4317C181.174 46.3985 181.378 46.3417 181.596 46.2611ZM182.074 43.8152C182.074 44.019 182.103 44.2228 182.15 44.4314C182.198 44.6447 182.274 44.8438 182.378 45.0381C182.482 45.2325 182.61 45.4173 182.767 45.588C182.923 45.7586 183.108 45.9103 183.321 46.0336C183.53 46.1615 183.771 46.2611 184.037 46.3322C184.307 46.408 184.606 46.4412 184.937 46.4412C185.279 46.4412 185.587 46.4033 185.867 46.3322C186.141 46.2563 186.388 46.1568 186.601 46.0288C186.815 45.9056 186.999 45.7539 187.151 45.5832C187.303 45.4126 187.431 45.2277 187.53 45.0334C187.63 44.839 187.706 44.6399 187.753 44.4314C187.796 44.2228 187.82 44.019 187.82 43.8152C187.82 43.6019 187.796 43.3885 187.753 43.1705C187.706 42.9572 187.63 42.7534 187.535 42.5543C187.436 42.3552 187.308 42.1751 187.156 42.0044C186.999 41.8338 186.815 41.6868 186.601 41.5588C186.388 41.4356 186.146 41.3361 185.871 41.265C185.592 41.1986 185.284 41.1607 184.937 41.1607C184.606 41.1607 184.307 41.1986 184.037 41.2744C183.767 41.355 183.525 41.4593 183.316 41.592C183.103 41.7248 182.918 41.8764 182.762 42.0518C182.605 42.2272 182.477 42.4121 182.378 42.6112C182.274 42.8055 182.198 43.0093 182.15 43.2132C182.103 43.417 182.074 43.6208 182.074 43.8152ZM183.487 43.7962C183.492 43.4976 183.515 43.2037 183.563 42.9288C183.61 42.6491 183.691 42.4026 183.809 42.1893C183.923 41.976 184.075 41.8053 184.26 41.6774C184.449 41.5494 184.686 41.483 184.971 41.483C185.165 41.483 185.336 41.5162 185.483 41.5825C185.625 41.6489 185.753 41.7342 185.862 41.848C185.971 41.9618 186.061 42.0945 186.132 42.2462C186.208 42.3979 186.265 42.5638 186.307 42.7391C186.35 42.9098 186.383 43.0947 186.397 43.2795C186.416 43.4691 186.426 43.654 186.426 43.8341C186.421 44.0142 186.407 44.1944 186.383 44.3792C186.36 44.5594 186.322 44.7348 186.274 44.9054C186.227 45.076 186.16 45.2325 186.085 45.3842C186.009 45.5311 185.914 45.6591 185.8 45.7728C185.691 45.8819 185.563 45.9719 185.412 46.0336C185.265 46.0952 185.099 46.1284 184.909 46.1284C184.625 46.1236 184.392 46.0525 184.208 45.915C184.023 45.7823 183.88 45.6069 183.771 45.3936C183.667 45.1756 183.591 44.9291 183.549 44.6494C183.511 44.3745 183.487 44.0901 183.487 43.7962ZM188.568 43.8152C188.568 44.019 188.597 44.2228 188.644 44.4314C188.692 44.6447 188.772 44.8438 188.872 45.0381C188.976 45.2325 189.109 45.4173 189.261 45.588C189.417 45.7586 189.602 45.9103 189.815 46.0336C190.024 46.1615 190.265 46.2611 190.531 46.3322C190.801 46.408 191.1 46.4412 191.432 46.4412C191.773 46.4412 192.081 46.4033 192.361 46.3322C192.636 46.2563 192.882 46.1568 193.095 46.0288C193.309 45.9056 193.493 45.7539 193.645 45.5832C193.797 45.4126 193.925 45.2277 194.024 45.0334C194.124 44.839 194.2 44.6399 194.247 44.4314C194.29 44.2228 194.314 44.019 194.314 43.8152C194.314 43.6019 194.29 43.3885 194.247 43.1705C194.2 42.9572 194.129 42.7534 194.029 42.5543C193.93 42.3552 193.802 42.1751 193.65 42.0044C193.493 41.8338 193.309 41.6868 193.095 41.5588C192.887 41.4356 192.64 41.3361 192.365 41.265C192.086 41.1986 191.778 41.1607 191.432 41.1607C191.1 41.1607 190.801 41.1986 190.531 41.2744C190.261 41.355 190.019 41.4593 189.81 41.592C189.597 41.7248 189.412 41.8764 189.256 42.0518C189.104 42.2272 188.971 42.4121 188.872 42.6112C188.768 42.8055 188.692 43.0093 188.644 43.2132C188.597 43.417 188.568 43.6208 188.568 43.8152ZM189.981 43.7962C189.986 43.4976 190.009 43.2037 190.057 42.9288C190.104 42.6491 190.19 42.4026 190.303 42.1893C190.417 41.976 190.569 41.8053 190.754 41.6774C190.943 41.5494 191.18 41.483 191.465 41.483C191.659 41.483 191.83 41.5162 191.977 41.5825C192.124 41.6489 192.247 41.7342 192.356 41.848C192.465 41.9618 192.555 42.0945 192.626 42.2462C192.702 42.3979 192.759 42.5638 192.801 42.7391C192.844 42.9098 192.877 43.0947 192.896 43.2795C192.91 43.4691 192.92 43.654 192.92 43.8341C192.915 44.0142 192.901 44.1944 192.877 44.3792C192.854 44.5594 192.82 44.7348 192.768 44.9054C192.721 45.076 192.654 45.2325 192.579 45.3842C192.503 45.5311 192.408 45.6591 192.299 45.7728C192.185 45.8819 192.057 45.9719 191.91 46.0336C191.759 46.0952 191.593 46.1284 191.403 46.1284C191.119 46.1236 190.886 46.0525 190.702 45.915C190.517 45.7823 190.374 45.6069 190.265 45.3936C190.161 45.1756 190.085 44.9291 190.043 44.6494C190.005 44.3745 189.981 44.0901 189.981 43.7962ZM194.968 41.3218V41.4925C195.105 41.4925 195.214 41.5114 195.295 41.5446C195.375 41.5778 195.437 41.6205 195.484 41.6679C195.527 41.7153 195.56 41.7674 195.574 41.8243C195.589 41.8764 195.598 41.9286 195.598 41.976V45.6449C195.598 45.7112 195.589 45.7728 195.57 45.8297C195.555 45.8866 195.522 45.9388 195.475 45.9814C195.432 46.0288 195.366 46.062 195.285 46.0904C195.205 46.1141 195.096 46.1284 194.968 46.1284V46.299H197.627V46.1284C197.508 46.1284 197.409 46.1141 197.333 46.0904C197.252 46.0667 197.191 46.0336 197.143 45.9956C197.091 45.9577 197.058 45.915 197.039 45.8676C197.02 45.8202 197.011 45.7776 197.011 45.7302V43.4454C197.011 43.1421 197.034 42.8814 197.091 42.6586C197.143 42.4405 197.214 42.2604 197.305 42.1229C197.39 41.9807 197.494 41.8764 197.608 41.8101C197.726 41.7437 197.845 41.7105 197.968 41.7105C198.068 41.7105 198.158 41.7342 198.243 41.7769C198.333 41.8243 198.404 41.8954 198.471 41.9997C198.532 42.0992 198.584 42.2319 198.622 42.3979C198.656 42.559 198.674 42.7628 198.674 42.9999V45.6828C198.674 45.7444 198.665 45.8013 198.646 45.8582C198.627 45.9103 198.594 45.9577 198.542 46.0004C198.494 46.0383 198.433 46.0715 198.352 46.0952C198.272 46.1141 198.172 46.1284 198.049 46.1284V46.299H200.694V46.1284C200.556 46.1284 200.447 46.1094 200.367 46.0762C200.286 46.043 200.224 46.0004 200.182 45.953C200.139 45.9056 200.106 45.8534 200.092 45.8013C200.078 45.7444 200.068 45.6923 200.068 45.6449V43.5118C200.068 43.1942 200.097 42.924 200.149 42.6965C200.206 42.469 200.277 42.2841 200.367 42.1371C200.457 41.9902 200.556 41.8812 200.675 41.8148C200.789 41.7437 200.912 41.7105 201.035 41.7105C201.135 41.7105 201.229 41.7342 201.315 41.7769C201.4 41.8243 201.476 41.8954 201.542 41.9997C201.604 42.0992 201.656 42.2319 201.694 42.3979C201.732 42.559 201.751 42.7628 201.751 42.9999V45.6828C201.751 45.7444 201.741 45.8013 201.718 45.8582C201.699 45.9103 201.665 45.9577 201.618 46.0004C201.571 46.0383 201.504 46.0715 201.424 46.0952C201.343 46.1141 201.244 46.1284 201.125 46.1284V46.299H203.765V46.1284C203.637 46.1284 203.533 46.1141 203.453 46.081C203.372 46.0525 203.31 46.0146 203.263 45.9672C203.216 45.9245 203.187 45.8724 203.168 45.8202C203.149 45.7681 203.144 45.7207 203.144 45.6733V43.2843C203.144 42.9999 203.107 42.7297 203.031 42.4737C202.955 42.2177 202.841 41.9949 202.694 41.8006C202.547 41.611 202.362 41.4593 202.144 41.3455C201.926 41.2365 201.68 41.1796 201.395 41.1796C201.196 41.1796 201.016 41.2081 200.86 41.2602C200.699 41.3124 200.556 41.3882 200.428 41.4783C200.305 41.5731 200.191 41.6821 200.097 41.8006C199.997 41.9238 199.912 42.0518 199.841 42.1845C199.779 42.0376 199.694 41.9001 199.599 41.7769C199.499 41.6537 199.385 41.5494 199.258 41.4593C199.134 41.3692 198.992 41.3029 198.831 41.2555C198.674 41.2033 198.504 41.1796 198.324 41.1796C198.167 41.1796 198.025 41.1986 197.897 41.2318C197.764 41.265 197.646 41.3124 197.537 41.3692C197.428 41.4309 197.328 41.502 197.243 41.5825C197.153 41.6631 197.072 41.7485 197.001 41.8433V41.3218H194.968ZM206.785 46.299V46.1284C206.652 46.1284 206.543 46.1094 206.458 46.0762C206.377 46.043 206.316 46.0004 206.268 45.953C206.226 45.9056 206.197 45.8534 206.178 45.8013C206.164 45.7444 206.154 45.6923 206.154 45.6449V41.9475C206.154 41.8907 206.164 41.8338 206.183 41.7769C206.202 41.7248 206.235 41.6774 206.282 41.6394C206.33 41.5968 206.396 41.5636 206.477 41.5399C206.557 41.5162 206.662 41.502 206.785 41.502V41.3218H204.183V41.502C204.32 41.502 204.429 41.5209 204.51 41.5541C204.59 41.5825 204.657 41.6252 204.699 41.6726C204.747 41.72 204.775 41.7722 204.789 41.829C204.808 41.8859 204.813 41.9381 204.813 41.9855V45.6449C204.813 45.7112 204.803 45.7728 204.789 45.8297C204.77 45.8866 204.742 45.9388 204.694 45.9814C204.647 46.0288 204.585 46.062 204.5 46.0904C204.42 46.1141 204.315 46.1284 204.183 46.1284V46.299H206.785ZM204.77 40.0894C204.77 40.1889 204.789 40.2837 204.832 40.3738C204.87 40.4591 204.922 40.535 204.984 40.6013C205.05 40.6677 205.126 40.7151 205.216 40.753C205.301 40.7909 205.396 40.8099 205.496 40.8099C205.595 40.8099 205.685 40.7909 205.775 40.753C205.861 40.7151 205.936 40.6677 206.003 40.6013C206.069 40.535 206.121 40.4591 206.159 40.3738C206.197 40.2837 206.216 40.1889 206.216 40.0894C206.216 39.9946 206.197 39.8998 206.159 39.8097C206.121 39.7244 206.069 39.6486 206.003 39.5822C205.936 39.5158 205.861 39.4637 205.775 39.4258C205.685 39.3879 205.595 39.3689 205.496 39.3689C205.396 39.3689 205.301 39.3879 205.216 39.4258C205.126 39.4637 205.05 39.5158 204.984 39.5822C204.922 39.6486 204.87 39.7244 204.832 39.8097C204.789 39.8998 204.77 39.9946 204.77 40.0894ZM209.932 46.299V46.1284C209.8 46.1284 209.691 46.1094 209.605 46.0762C209.525 46.043 209.463 46.0004 209.416 45.953C209.373 45.9056 209.345 45.8534 209.326 45.8013C209.311 45.7444 209.302 45.6923 209.302 45.6449V44.5167C209.454 44.6779 209.629 44.8485 209.823 45.0334C210.022 45.2182 210.226 45.3984 210.444 45.5643C210.662 45.7349 210.89 45.8819 211.122 46.0146C211.354 46.1473 211.582 46.2421 211.809 46.299H213.781V46.1284C213.649 46.1284 213.544 46.1141 213.464 46.081C213.383 46.0525 213.322 46.0146 213.274 45.9672C213.231 45.9245 213.198 45.8724 213.179 45.8202C213.165 45.7681 213.156 45.7207 213.156 45.6733V41.9475C213.156 41.8907 213.165 41.8338 213.184 41.7769C213.203 41.7248 213.236 41.6774 213.284 41.6394C213.331 41.5968 213.393 41.5636 213.473 41.5399C213.554 41.5162 213.658 41.502 213.781 41.502V41.3218H211.184V41.502C211.321 41.502 211.43 41.5209 211.511 41.5541C211.591 41.5825 211.653 41.6252 211.7 41.6726C211.743 41.72 211.772 41.7722 211.786 41.829C211.8 41.8859 211.809 41.9381 211.809 41.9855V45.8155C211.482 45.6449 211.188 45.4458 210.923 45.223C210.662 45.0049 210.43 44.7727 210.226 44.5309C210.022 44.2892 209.842 44.0474 209.691 43.8057C209.544 43.5639 209.411 43.3364 209.302 43.1231V41.9475C209.302 41.8907 209.311 41.8338 209.33 41.7769C209.349 41.7248 209.382 41.6774 209.43 41.6394C209.477 41.5968 209.544 41.5636 209.624 41.5399C209.71 41.5162 209.809 41.502 209.932 41.502V41.3218H207.33V41.502C207.463 41.502 207.567 41.5162 207.648 41.5494C207.733 41.5778 207.795 41.6157 207.842 41.6584C207.889 41.7011 207.918 41.7532 207.937 41.8053C207.951 41.8622 207.96 41.9096 207.96 41.957V45.6449C207.96 45.7112 207.951 45.7728 207.937 45.8297C207.918 45.8866 207.889 45.9388 207.842 45.9814C207.795 46.0288 207.733 46.062 207.648 46.0904C207.567 46.1141 207.463 46.1284 207.33 46.1284V46.299H209.932ZM214.189 41.6157H215.635C215.483 41.6774 215.341 41.7579 215.203 41.8433C215.061 41.9333 214.943 42.0329 214.834 42.1514C214.729 42.2746 214.649 42.4073 214.582 42.559C214.521 42.7154 214.488 42.8861 214.488 43.0757C214.488 43.3411 214.54 43.5829 214.644 43.8009C214.753 44.0237 214.891 44.2276 215.061 44.4124C215.237 44.5973 215.431 44.7727 215.649 44.9338C215.872 45.095 216.095 45.2467 216.322 45.3936C216.554 45.5406 216.777 45.6828 216.995 45.8155C217.218 45.9482 217.412 46.0857 217.588 46.2184C217.758 46.3559 217.896 46.4933 218 46.6356C218.109 46.7778 218.161 46.9294 218.161 47.0859C218.161 47.2044 218.133 47.3087 218.085 47.4035C218.038 47.503 217.967 47.5836 217.882 47.6499C217.796 47.7163 217.692 47.7732 217.578 47.8064C217.464 47.8443 217.341 47.8633 217.208 47.8633C216.962 47.8585 216.744 47.8016 216.564 47.6973C216.384 47.5931 216.232 47.4509 216.113 47.2802C215.995 47.1096 215.9 46.9057 215.834 46.683C215.772 46.4554 215.73 46.2137 215.711 45.9672L214.516 46.6403C214.635 46.8678 214.777 47.0764 214.947 47.266C215.118 47.4556 215.317 47.6168 215.545 47.7495C215.772 47.8822 216.033 47.9912 216.317 48.0671C216.606 48.1429 216.929 48.1761 217.284 48.1761C217.697 48.1761 218.047 48.1382 218.337 48.0623C218.621 47.9818 218.858 47.8775 219.038 47.74C219.218 47.6073 219.346 47.4509 219.432 47.2755C219.512 47.0953 219.555 46.9057 219.555 46.7067C219.555 46.4696 219.498 46.2611 219.394 46.0762C219.285 45.8866 219.147 45.716 218.972 45.5548C218.792 45.3984 218.593 45.2467 218.37 45.1092C218.147 44.9718 217.919 44.8343 217.687 44.7016C217.45 44.5641 217.223 44.4314 217 44.2939C216.777 44.1565 216.578 44.0095 216.403 43.8531C216.223 43.6967 216.085 43.526 215.976 43.3364C215.872 43.1515 215.815 42.943 215.815 42.7154C215.815 42.5448 215.843 42.3931 215.9 42.2604C215.957 42.1277 216.033 42.0139 216.128 41.9191C216.223 41.8243 216.336 41.7532 216.46 41.7011C216.588 41.6489 216.72 41.6205 216.858 41.6157H217.716C217.773 41.6157 217.853 41.6157 217.953 41.6252C218.047 41.63 218.157 41.6442 218.27 41.6631C218.379 41.6821 218.498 41.7153 218.612 41.7532C218.73 41.7911 218.839 41.848 218.934 41.9144C219.033 41.9807 219.114 42.0613 219.18 42.1608C219.247 42.2604 219.285 42.3789 219.299 42.5164L219.465 42.4879C219.46 42.469 219.46 42.45 219.46 42.431C219.455 42.4121 219.455 42.3884 219.455 42.3599V42.2699C219.455 42.1466 219.47 41.9997 219.493 41.8338C219.517 41.6631 219.569 41.4972 219.654 41.3218H216.132C216.071 41.3218 215.99 41.3218 215.895 41.3124C215.796 41.3076 215.692 41.2934 215.578 41.2744C215.464 41.2555 215.346 41.2223 215.227 41.1844C215.113 41.1417 215.004 41.0896 214.909 41.0232C214.81 40.9568 214.729 40.8763 214.663 40.7767C214.597 40.6772 214.559 40.5587 214.545 40.4212L214.379 40.4497C214.379 40.4686 214.379 40.4876 214.383 40.5065C214.383 40.5255 214.383 40.5492 214.383 40.5729C214.388 40.6013 214.388 40.6298 214.388 40.6677C214.388 40.7909 214.374 40.9379 214.35 41.1085C214.326 41.2744 214.274 41.4451 214.189 41.6157Z" fill="#1C1C1C"/>
</svg>
